# xmcd
#
# Track frame offsets:
#	150
#	21115
#	34228
#	45660
#	58534
#	75783
#	90628
#	96865
#	114154
#	133440
#	143207
#	161790
#	168183
#	181203
#	194370
#	207175
#	213698
#	230040
#	239745
#	249086
#
# Disc length: 3396 seconds
#
# Revision: 5
# Processed by: cddbd v1.5.1PL2 Copyright (c) Steve Scherf et al.
# Submitted via: EasyCDDAExtractor 8.0.1.1
#
DISCID=140d4214
DTITLE=Bébé Noël
DYEAR=2002
DGENRE=Bébé
TTITLE0=Petit Papa Noël
TTITLE1=Mon beau sapin
TTITLE2=Noël blanc
TTITLE3=Au pays des fées
TTITLE4=Merveilleuse nuit de noël
TTITLE5=La chanson des clochettes
TTITLE6=Jolies petites flammes
TTITLE7=En attandant le Père Noël (1è partie)
TTITLE8=Jingle Bells
TTITLE9=Il est né le divin enfant
TTITLE10=Un traîneau dans le ciel
TTITLE11=En attandant le Père Noël (2è partie)
TTITLE12=Les anges dans nos campagnes
TTITLE13=We wish you a merry christmas
TTITLE14=La ronde des flocons de neige
TTITLE15=En attandant le Père Noël (3è partie)
TTITLE16=Jolis joujoux
TTITLE17=Petite lune
TTITLE18=Minuit chrétien
TTITLE19=Bonus
EXTD=
EXTT0=
EXTT1=
EXTT2=
EXTT3=
EXTT4=
EXTT5=
EXTT6=
EXTT7=
EXTT8=
EXTT9=
EXTT10=
EXTT11=
EXTT12=
EXTT13=
EXTT14=
EXTT15=
EXTT16=
EXTT17=
EXTT18=
EXTT19=
PLAYORDER=
